<svg version="1.1"
     xmlns="http://www.w3.org/2000/svg" xmlns:xlink="http://www.w3.org/1999/xlink" xmlns:a="http://ns.adobe.com/AdobeSVGViewerExtensions/3.0/"
     x="0px" y="0px" width="32px" height="32px" viewBox="0 0 32 32" style="enable-background:new 0 0 32 32;" xml:space="preserve">
<g id="XMLID_25_">
    <path id="XMLID_43_" d="M16,7.3L25.7,26L6.3,26L16,7.3 M16,4c-0.3,0-0.7,0.2-0.9,0.7L3.9,26.2c-0.5,1,0,1.8,1.1,1.8
        h22c1.1,0,1.6-0.8,1.1-1.8L16.9,4.8C16.7,4.3,16.3,4,16,4L16,4z"/>
</g>
<g id="XMLID_16_">
    <g id="XMLID_21_">
        <path id="XMLID_22_" d="M16,7.3L25.7,26L6.3,26L16,7.3 M16,4c-0.3,0-0.7,0.2-0.9,0.7L3.9,26.2c-0.5,1,0,1.8,1.1,1.8h22
            c1.1,0,1.6-0.8,1.1-1.8L16.9,4.8C16.7,4.3,16.3,4,16,4L16,4z"/>
    </g>
    <g id="XMLID_17_">
        <path id="XMLID_18_" d="M17.1,22.9c0,0.3-0.1,0.5-0.3,0.7C16.5,23.9,16.3,24,16,24s-0.5-0.1-0.8-0.3c-0.2-0.2-0.3-0.5-0.3-0.7
            c0-0.3,0.1-0.5,0.3-0.8s0.5-0.3,0.8-0.3s0.5,0.1,0.8,0.3S17.1,22.7,17.1,22.9z M17,13.5c0,0.3-0.1,1.1-0.3,2.6
            c-0.2,1.5-0.3,2.9-0.5,4.3h-0.6c-0.1-1.4-0.3-2.8-0.4-4.3c-0.2-1.5-0.3-2.4-0.3-2.6c0-0.3,0.1-0.5,0.3-0.8s0.4-0.3,0.7-0.3
            s0.5,0.1,0.7,0.3C16.9,13,17,13.2,17,13.5z"/>
    </g>
</g>
</svg>
